<?xml version="1.0" standalone="no"?>
<!DOCTYPE svg PUBLIC "-//W3C//DTD SVG 20010904//EN"
 "http://www.w3.org/TR/2001/REC-SVG-20010904/DTD/svg10.dtd">
<svg version="1.0" xmlns="http://www.w3.org/2000/svg"
 width="1024.000000pt" height="1024.000000pt" viewBox="0 0 1024.000000 1024.000000"
 preserveAspectRatio="xMidYMid meet">

<g transform="translate(0.000000,1024.000000) scale(0.100000,-0.100000)"
fill="#000000" stroke="none">
<path d="M2440 6737 c-114 -34 -176 -73 -270 -167 -129 -129 -181 -251 -181
-426 0 -139 24 -218 86 -292 16 -19 23 -37 19 -44 -27 -44 -110 -140 -153
-176 -28 -24 -51 -50 -51 -58 0 -41 249 -266 355 -321 l74 -38 -37 -19 c-54
-27 -145 -100 -185 -146 -104 -121 -168 -360 -122 -450 21 -41 75 -51 116 -21
23 17 29 18 29 7 0 -10 6 -13 15 -10 10 4 15 0 15 -11 0 -37 24 -45 134 -45
72 0 106 -4 106 -11 0 -8 4 -8 15 1 8 6 18 9 22 7 5 -3 31 -1 58 5 38 8 45 13
30 18 -16 6 -14 8 13 13 21 4 32 13 33 24 0 16 2 15 9 -2 7 -17 9 -16 9 10 1
18 9 35 19 42 42 25 65 120 42 164 -10 17 -24 19 -178 21 l-167 2 155 6 c85 4
166 10 180 14 16 5 20 4 12 -1 -9 -7 -6 -13 13 -23 17 -9 25 -22 25 -39 0 -14
11 -37 25 -51 21 -22 26 -39 30 -101 3 -53 2 -70 -6 -59 -7 11 -8 -21 -4 -110
10 -194 12 -491 3 -496 -4 -3 -8 0 -8 6 0 10 -26 23 -83 43 -16 6 -17 9 -2 37
18 35 12 92 -12 111 -10 9 -78 12 -247 10 -259 -3 -239 -8 -251 71 -12 78 23
84 158 25 26 -11 47 -25 47 -30 0 -5 12 -6 28 -3 17 4 22 3 14 -2 -10 -7 -7
-11 13 -14 19 -4 25 -2 21 8 -6 17 14 22 96 26 36 1 66 5 66 8 -1 16 15 49 22
45 5 -3 18 11 31 31 25 41 29 128 7 150 -10 9 -95 13 -331 16 l-318 4 -7 -26
c-11 -39 -6 -337 7 -419 40 -249 235 -460 478 -517 72 -17 261 -15 563 6 177
12 636 12 1140 0 279 -7 670 -6 1255 2 930 12 1285 13 1503 2 116 -5 160 -3
237 11 95 18 95 18 188 -5 113 -29 296 -38 405 -20 105 16 171 45 273 118 115
82 163 148 217 296 24 67 25 84 28 298 4 276 9 264 -111 254 -44 -3 -174 -9
-288 -13 -206 -6 -209 -6 -224 -30 -23 -35 -20 -79 7 -108 28 -30 75 -55 102
-55 10 0 18 -6 18 -14 0 -9 -7 -12 -19 -9 -13 3 -20 -2 -26 -19 -4 -13 -7 -26
-6 -30 1 -5 -4 -8 -10 -8 -8 0 -10 -12 -6 -35 3 -19 1 -37 -4 -40 -14 -9 -11
-42 9 -84 11 -23 14 -38 8 -38 -45 1 -69 -6 -87 -24 -12 -12 -27 -22 -35 -23
-8 -1 -21 -11 -28 -22 -12 -15 -12 -10 1 26 16 43 24 248 12 291 -14 49 -84
172 -119 207 l-40 40 39 58 c71 109 114 267 82 308 -38 50 -131 132 -213 189
-103 71 -113 90 -39 70 23 -6 23 -7 5 -14 -16 -6 -12 -10 26 -27 24 -11 47
-19 51 -16 4 2 9 -3 13 -11 3 -8 13 -15 21 -15 9 0 13 -4 10 -10 -3 -5 -1 -10
5 -10 6 0 8 -4 5 -10 -3 -5 0 -7 8 -4 8 3 20 -2 27 -11 10 -12 10 -15 -1 -15
-8 0 -1 -11 15 -25 23 -20 32 -22 39 -13 6 9 7 8 3 -5 -3 -11 0 -20 9 -23 8
-4 13 -10 10 -14 -11 -18 47 -70 85 -76 44 -7 55 -24 35 -51 -8 -10 -15 -30
-15 -46 0 -28 45 -107 62 -107 5 0 8 -28 6 -62 -3 -59 -5 -63 -25 -61 -13 2
-23 -1 -23 -5 0 -5 23 -9 50 -11 32 -1 50 2 50 9 0 7 -8 9 -21 5 -12 -4 -19
-3 -16 2 3 5 38 10 78 11 40 0 75 5 78 10 10 15 46 31 97 42 59 13 124 41 124
52 0 5 36 6 79 2 75 -6 79 -6 91 16 27 51 -8 229 -62 319 -30 49 -198 221
-217 222 -9 0 49 16 128 35 227 54 250 78 164 177 -26 30 -78 108 -115 174
l-68 120 50 84 c68 112 91 189 97 319 6 128 -11 212 -64 312 -73 139 -205 252
-355 302 -115 39 -120 39 -1053 40 -500 1 -931 5 -957 10 l-48 9 0 -162 c0
-88 -3 -161 -7 -161 -5 1 -23 21 -41 45 -42 57 -146 144 -222 184 -32 17 -94
41 -137 52 -74 20 -111 21 -777 25 l-698 5 5 -23 c5 -19 10 -177 8 -241 -1
-15 -8 -18 -43 -15 -53 4 -56 13 -57 164 l-1 111 -272 2 c-150 0 -293 4 -317
7 l-44 7 6 -122 5 -121 -59 54 c-82 76 -177 130 -283 160 -119 35 -284 36
-396 3z m283 -172 c88 -15 222 -76 279 -127 l38 -33 -54 -70 c-30 -38 -65 -80
-79 -93 l-25 -23 -53 30 c-57 31 -157 61 -205 61 -81 0 -154 -46 -154 -95 0
-47 36 -68 175 -104 257 -66 339 -112 392 -219 25 -50 28 -67 27 -147 -1 -66
-7 -105 -22 -145 -67 -173 -263 -268 -493 -239 -129 16 -206 47 -334 136 -77
54 -90 80 -53 109 13 11 50 52 82 91 60 76 71 80 105 39 41 -50 189 -106 278
-106 122 0 194 80 129 145 -23 23 -54 34 -256 90 -244 68 -315 141 -315 330 0
79 4 97 28 147 55 112 146 180 291 218 86 23 117 23 219 5z m1645 -366 c1
-214 -2 -382 -8 -424 -30 -196 -184 -357 -389 -405 -118 -28 -313 9 -413 78
-62 42 -132 121 -163 182 -49 97 -55 153 -55 553 l0 367 143 0 143 0 3 -362
c2 -409 3 -412 78 -480 78 -70 192 -73 282 -8 75 54 76 61 79 455 1 193 5 360
7 372 5 22 10 23 138 25 72 2 137 3 142 2 6 0 11 -128 13 -355z m951 340 c108
-25 235 -118 280 -207 55 -109 64 -270 21 -385 -31 -84 -121 -177 -214 -223
-78 -38 -173 -53 -338 -54 l-78 0 0 -145 0 -145 -145 0 -145 0 0 585 0 585
288 0 c158 0 307 -5 331 -11z m1481 -119 l0 -130 -285 0 -285 0 0 -101 0 -102
240 5 240 5 0 -129 0 -128 -245 0 -245 0 0 -95 0 -95 289 0 c254 0 290 -2 295
-16 3 -9 6 -70 6 -137 l0 -122 -427 3 c-235 1 -428 4 -430 6 -6 5 -8 297 -5
729 l2 437 425 0 425 0 0 -130z m922 119 c125 -27 238 -110 289 -214 83 -169
53 -372 -73 -498 -32 -32 -58 -63 -58 -68 0 -15 35 -81 110 -209 76 -129 88
-158 68 -164 -7 -3 -72 -6 -144 -9 l-130 -5 -56 87 c-30 47 -76 123 -102 169
l-48 82 -71 0 c-40 0 -83 -3 -96 -7 l-23 -6 4 -158 4 -159 -121 0 c-66 0 -130
-3 -142 -6 l-23 -6 0 591 0 591 280 0 c169 0 300 -4 332 -11z m-3519 -1396
c-13 -2 -35 -2 -50 0 -16 2 -5 4 22 4 28 0 40 -2 28 -4z m2507 -6 c0 -18 -89
-79 -103 -71 -7 4 -9 3 -4 -1 9 -10 -91 -115 -110 -115 -7 0 -12 -3 -11 -7 2
-5 -12 -33 -29 -63 l-33 -55 0 101 c0 56 -2 117 -5 135 -5 33 -5 33 6 7 6 -16
15 -28 20 -28 5 0 9 -6 9 -14 0 -7 11 -21 25 -30 14 -9 23 -22 19 -28 -5 -7
-2 -8 7 -3 30 17 47 37 43 50 -3 7 0 16 7 21 8 4 10 3 5 -4 -4 -7 -3 -12 3
-12 15 0 23 18 11 25 -16 10 -12 28 4 22 11 -4 13 -1 9 10 -4 11 -2 14 5 9 8
-4 12 0 12 12 0 11 13 25 33 34 41 20 77 22 77 5z m-2356 -3 c24 -9 20 -39 -6
-41 -12 -1 -27 2 -33 6 -5 5 -27 11 -47 15 -21 4 -38 11 -38 16 0 11 99 14
124 4z m2109 -1 c-18 -2 -33 -9 -33 -14 0 -6 -4 -8 -9 -5 -5 4 -11 2 -13 -4
-2 -6 -9 -1 -16 10 -12 19 -10 20 45 18 36 -1 45 -3 26 -5z m-2112 -80 c-12
-20 -14 -14 -5 12 4 9 9 14 11 11 3 -2 0 -13 -6 -23z m-2007 -33 c-33 -22 -66
-46 -74 -52 -22 -18 -70 -83 -70 -94 0 -5 4 -3 9 4 6 11 14 8 33 -11 14 -14
34 -27 44 -30 11 -3 4 -5 -16 -6 -27 -1 -31 -4 -20 -11 11 -8 9 -9 -12 -8 -16
1 -28 6 -28 9 0 4 -13 4 -30 -1 l-30 -9 22 42 c11 23 32 57 47 76 25 33 155
131 174 131 5 0 -17 -18 -49 -40z m5621 -42 c42 -37 105 -124 105 -146 0 -7
-7 -9 -17 -5 -11 4 -14 3 -9 -5 5 -8 -3 -12 -26 -11 -27 0 -30 2 -13 9 19 8
19 9 -2 9 -16 1 -23 7 -23 21 0 11 -4 20 -9 20 -10 0 -27 41 -36 89 -5 24 -10
30 -16 20 -6 -10 -12 -4 -23 21 -8 19 -18 34 -22 32 -5 -2 -10 2 -13 9 -5 17
53 -19 104 -63z m-3077 -13 c-3 -3 -9 2 -12 12 -6 14 -5 15 5 6 7 -7 10 -15 7
-18z m2238 -16 c38 -12 86 -30 107 -41 58 -29 137 -88 137 -102 0 -13 -79
-116 -128 -168 l-25 -27 -28 24 c-66 55 -228 90 -302 66 -42 -14 -77 -53 -77
-86 0 -12 10 -31 23 -42 22 -21 45 -29 222 -77 148 -40 205 -66 256 -113 70
-65 93 -126 94 -243 0 -88 -3 -101 -33 -162 -105 -213 -382 -287 -662 -176
-58 22 -160 90 -197 130 l-22 23 59 75 c33 41 66 87 73 103 6 15 15 27 19 27
4 0 28 -14 54 -31 25 -18 78 -46 118 -63 61 -26 83 -31 158 -31 96 0 137 18
149 66 15 61 -18 91 -136 124 -230 64 -349 116 -391 170 -71 93 -91 234 -46
326 32 64 91 139 137 171 108 76 299 101 441 57z m-3386 -113 c0 -120 -1 -124
-22 -130 -13 -3 -95 -6 -184 -6 -88 0 -202 -3 -252 -6 l-92 -7 0 -98 0 -98
235 6 235 6 0 -131 0 -132 -235 0 -235 0 0 -97 0 -98 285 3 285 3 0 -142 0
-141 -417 7 c-230 4 -421 9 -425 12 -9 5 -11 1134 -2 1157 5 14 51 16 415 16
l409 0 0 -124z m968 96 c64 -133 195 -435 362 -832 43 -102 89 -208 102 -235
50 -99 57 -92 -96 -90 -89 1 -140 6 -150 14 -8 7 -34 52 -57 102 l-43 89 -127
0 c-69 0 -173 -3 -231 -6 l-105 -7 -27 -76 c-47 -128 -36 -121 -186 -121 -110
0 -130 2 -130 15 0 31 72 237 116 332 26 54 57 125 69 158 13 33 42 105 65
160 22 55 47 116 54 135 30 77 147 342 162 365 16 24 21 25 113 25 95 0 96 -1
109 -28z m1541 12 c5 -4 2 -236 -2 -241 -2 -1 -75 -5 -163 -9 l-161 -7 -6
-246 c-4 -135 -7 -341 -7 -458 l0 -212 -122 3 -123 2 -6 30 c-4 16 -7 221 -8
457 l-1 427 -68 0 c-38 0 -110 3 -160 6 l-92 7 0 126 0 126 457 -3 c252 -2
460 -5 462 -8z m-1279 -123 c6 -12 7 -29 1 -43 l-8 -23 -7 25 c-4 14 -10 33
-12 43 -7 23 13 22 26 -2z m-1043 -93 c-2 -18 -4 -6 -4 27 0 33 2 48 4 33 2
-15 2 -42 0 -60z m1057 6 c3 -8 2 -12 -4 -9 -6 3 -10 10 -10 16 0 14 7 11 14
-7z m75 -148 c-1 -6 -1 -18 0 -26 1 -13 3 -13 12 0 9 12 10 12 5 -3 -3 -10 -6
-24 -6 -30 -1 -11 -39 51 -40 64 0 3 7 6 15 6 8 0 15 -5 14 -11z m-1176 -46
c-3 -8 -8 -75 -11 -148 -4 -141 9 -235 33 -230 7 2 21 -6 32 -18 10 -11 23
-23 29 -25 7 -2 -1 -29 -21 -71 l-33 -68 -7 58 c-7 60 -24 100 -49 121 -13 11
-16 37 -17 135 0 66 -3 153 -7 192 l-7 70 32 0 c26 -1 32 -4 26 -16z m1430
-27 c-13 -2 -33 -2 -45 0 -13 2 -3 4 22 4 25 0 35 -2 23 -4z m1052 -23 c23
-44 19 -72 -4 -34 -11 18 -24 35 -30 38 -16 10 -13 26 4 26 8 0 21 -13 30 -30z
m-2232 -5 c-3 -9 -8 -14 -10 -11 -3 3 -2 9 2 15 9 16 15 13 8 -4z m995 -63
c-3 -11 -1 -27 4 -36 5 -9 6 -16 3 -16 -6 0 -55 104 -55 117 0 3 12 -6 26 -20
16 -17 25 -34 22 -45z m-1017 11 c-12 -20 -14 -14 -5 12 4 9 9 14 11 11 3 -2
0 -13 -6 -23z m-20 -50 c-12 -20 -14 -14 -5 12 4 9 9 14 11 11 3 -2 0 -13 -6
-23z m-50 -120 c-12 -20 -14 -14 -5 12 4 9 9 14 11 11 3 -2 0 -13 -6 -23z
m4099 -64 c0 -16 -7 -29 -16 -33 -27 -10 -244 -7 -244 4 0 6 12 10 26 10 31 0
54 21 54 49 0 19 6 21 75 21 53 0 75 4 75 13 1 23 29 -38 30 -64z m-2926 -11
c13 -32 23 -58 20 -58 -5 0 -54 106 -54 117 0 12 8 -3 34 -59z m-1193 25 c-12
-20 -14 -14 -5 12 4 9 9 14 11 11 3 -2 0 -13 -6 -23z m2429 -16 c0 -2 -12 -14
-27 -28 l-28 -24 24 28 c23 25 31 32 31 24z m-2457 -55 c-3 -7 -9 -10 -12 -5
-3 4 -10 11 -15 15 -4 4 1 6 12 5 12 -1 18 -6 15 -15z m2350 -77 c-30 -41 -59
-72 -64 -69 -5 3 -6 -1 -3 -9 3 -8 1 -18 -5 -21 -6 -4 -9 9 -8 35 1 32 7 45
29 61 18 13 28 15 28 7 0 -7 16 6 36 29 54 64 49 50 -13 -33z m-1071 30 c3 3
8 -1 11 -10 4 -8 2 -15 -4 -15 -6 0 -4 -11 4 -27 8 -16 25 -53 38 -83 13 -30
26 -57 30 -60 8 -7 20 -40 26 -70 2 -13 7 -27 11 -30 4 -3 8 -12 10 -20 2 -8
10 -25 17 -37 12 -18 19 -20 45 -13 25 7 30 6 30 -10 0 -11 -9 -19 -26 -23
-35 -6 -69 41 -124 175 -24 57 -58 136 -77 177 -24 54 -28 70 -15 58 10 -10
21 -15 24 -12z m-3078 -98 c17 -13 17 -16 3 -43 l-15 -29 -11 28 c-21 53 -12
70 23 44z m79 -169 c27 -26 54 -48 61 -48 8 0 20 -7 27 -16 11 -13 6 -13 -26
4 -43 22 -101 79 -129 127 -16 29 -16 29 1 6 10 -13 40 -46 66 -73z m5777 83
c0 -6 -12 -23 -26 -38 l-25 -28 23 37 c24 40 28 44 28 29z m-105 -121 c-3 -6
-21 -17 -38 -26 -35 -18 -22 1 15 21 30 17 30 17 23 5z m-5209 -98 c-11 -10
-13 3 -7 48 l6 45 3 -44 c2 -23 1 -46 -2 -49z m5094 34 c0 -2 -7 -7 -16 -10
-8 -3 -12 -2 -9 4 6 10 25 14 25 6z m-3076 -15 c3 -5 -3 -11 -14 -14 -20 -5
-26 3 -13 16 9 10 21 9 27 -2z m3026 -10 c-26 -15 -66 -24 -55 -13 6 5 19 12
30 15 32 8 41 7 25 -2z"/>
<path d="M4988 6103 l-3 -185 127 4 c141 3 152 8 212 82 28 34 31 45 31 109 0
86 -17 115 -85 149 -39 20 -62 23 -162 24 l-117 1 -3 -184z"/>
<path d="M7390 6159 c0 -69 -3 -148 -7 -174 l-6 -48 133 7 c88 5 145 12 167
23 71 33 113 119 94 191 -27 96 -71 119 -249 123 l-132 4 0 -126z"/>
<path d="M7970 4930 c0 -5 5 -10 11 -10 5 0 7 5 4 10 -3 6 -8 10 -11 10 -2 0
-4 -4 -4 -10z"/>
<path d="M4553 4433 c-32 -74 -83 -207 -83 -217 0 -1 58 0 130 2 l130 3 -6 27
c-3 15 -33 85 -67 155 l-62 128 -42 -98z"/>
<path d="M7616 4531 c-11 -12 -29 -21 -40 -22 -15 0 -17 -2 -6 -6 8 -3 18 -11
22 -17 5 -8 8 -7 8 2 0 6 5 12 11 12 5 0 7 -5 3 -11 -9 -16 18 -30 33 -18 6 6
10 16 7 23 -3 7 2 19 11 26 8 7 15 17 15 22 0 5 -8 2 -17 -8 -16 -15 -17 -15
-23 0 -5 16 -8 15 -24 -3z"/>
<path d="M2338 4503 c6 -2 18 -2 25 0 6 3 1 5 -13 5 -14 0 -19 -2 -12 -5z"/>
</g>
</svg>
